<?xml version="1.0" encoding="utf-8"?>
<!-- Generator: Adobe Illustrator 14.0.0, SVG Export Plug-In . SVG Version: 6.00 Build 43363)  -->
<!DOCTYPE svg PUBLIC "-//W3C//DTD SVG 1.1//EN" "http://www.w3.org/Graphics/SVG/1.1/DTD/svg11.dtd">
<svg version="1.1" id="图层_1" xmlns="http://www.w3.org/2000/svg" xmlns:xlink="http://www.w3.org/1999/xlink" x="0px" y="0px"
	 width="122px" height="94px" viewBox="0 0 122 94" enable-background="new 0 0 122 94" xml:space="preserve">
<title>icon</title>
<desc>Created with Sketch.</desc>
<g enable-background="new    ">
	<path d="M106.839,17.513c-0.353,2.875-2.483,4.312-6.392,4.312c-2.014,0-3.795-0.197-5.346-0.594c-0.793-0.298-1.711-0.298-2.754,0
		c-3.918,1.041-8.166,3.569-12.744,7.583c-5.245,4.609-9.713,8.922-13.402,12.937c-0.85,0.645-1.176,1.364-0.977,2.156
		c2.869,13.284,6.457,22.875,10.768,28.772c0.712,0.942,1.861,0.992,3.445,0.149c4.123-2.23,8.453-5.428,12.991-9.591
		c0.285-0.396,0.735-0.447,1.351-0.149c0.283,0.101,0.721,0.397,1.313,0.893c0.135,0.347,0.098,0.645-0.109,0.892
		c-4.734,5.751-11.385,11.451-19.954,17.102c-1.224,0.792-2.545,1.189-3.966,1.189c-1.481,0-2.681-0.596-3.6-1.785
		c-4.923-6.691-8.745-15.588-11.467-26.691c-0.27-1.189-0.92-1.189-1.955,0c-4.345,5.008-11.123,12.219-20.333,21.637
		c-5.19,4.658-9.533,6.988-13.026,6.988c-1.896,0-3.982-2.775-6.261-8.328c-0.135-0.346,0.116-0.693,0.75-1.041
		c0.636-0.346,1.178-0.42,1.626-0.223c1.229,0.596,2.676,1.115,4.339,1.563c2.815,0.693,5.019,0.594,6.61-0.299
		c3.833-2.279,7.876-5.55,12.13-9.813c3.231-3.171,7.79-8.228,13.676-15.167c0.576-0.842,0.783-1.562,0.621-2.156
		c-3.833-13.63-7.358-22.057-10.574-25.279c-0.426-0.396-1.071-0.446-1.936-0.149c-2.479,0.893-5.511,2.677-9.096,5.354
		c-0.458,0.348-0.873,0.348-1.243,0l-0.159-0.149c0.006-0.048-0.198-0.322-0.611-0.817c-0.153-0.198-0.218-0.396-0.193-0.595
		c0.018-0.148,0.125-0.297,0.321-0.446c4.258-3.816,8.981-7.311,14.167-10.483c1.667-1.041,3.448-1.562,5.343-1.562
		c1.479,0,2.67,0.669,3.572,2.007c3.594,5.453,6.816,12.714,9.672,21.785c0.379,1.24,1.078,1.338,2.095,0.297
		c5.002-5.056,8.439-8.45,10.312-10.186c4.021-3.816,7.485-6.715,10.395-8.699c5.424-3.667,10.209-5.501,14.354-5.501
		C105.09,13.424,107.174,14.788,106.839,17.513z"/>
</g>
</svg>
